<svg width="163" height="68" viewBox="0 0 163 68" fill="none" xmlns="http://www.w3.org/2000/svg">
<rect x="1.5" y="1.5" width="160" height="65" rx="32.5" stroke="#EDCFC5" stroke-width="3"/>
<path d="M42.7188 44H39.3306V35.7471H30.0757V44H26.6743V24.9761H30.0757V32.8862H39.3306V24.9761H42.7188V44ZM45.3027 38.6475H48.5986C48.8096 40.4009 50.563 41.5479 52.8833 41.5479C55.1772 41.5479 56.7725 40.4141 56.7725 38.832C56.7725 37.4609 55.7969 36.6699 53.3975 36.103L50.9321 35.5229C47.4253 34.7188 45.7642 33.0312 45.7642 30.3154C45.7642 26.9404 48.7041 24.6597 52.8438 24.6597C57.0361 24.6597 59.8047 26.9272 59.8838 30.2759H56.6406C56.4824 28.4961 54.9927 27.4282 52.8174 27.4282C50.6685 27.4282 49.2183 28.4829 49.2183 30.0649C49.2183 31.3306 50.1807 32.0688 52.5142 32.6226L54.7026 33.1235C58.5654 34.0068 60.2002 35.6021 60.2002 38.4365C60.2002 42.0488 57.2998 44.3164 52.6987 44.3164C48.3218 44.3164 45.4478 42.1543 45.3027 38.6475ZM75.0845 41.126V44H62.771V24.9761H75.0845V27.8501H66.1724V32.9917H74.5967V35.6943H66.1724V41.126H75.0845ZM95.875 44L94.2534 39.0825H87.2529L85.6313 44H82.1245L88.8745 24.9761H92.7109L99.4609 44H95.875ZM90.707 28.3379L88.0439 36.459H93.4492L90.7993 28.3379H90.707ZM101.504 24.9761H108.452C114.134 24.9761 117.496 28.417 117.496 34.4419C117.496 40.4668 114.147 44 108.452 44H101.504V24.9761ZM104.906 27.8501V41.126H108.096C111.919 41.126 114.029 38.7925 114.029 34.4551C114.029 30.1968 111.893 27.8501 108.096 27.8501H104.906ZM128.399 44.3164C122.967 44.3164 119.553 40.5854 119.553 34.4814C119.553 28.417 122.994 24.6597 128.399 24.6597C132.815 24.6597 136.177 27.415 136.599 31.502H133.25C132.802 29.1157 130.864 27.5469 128.399 27.5469C125.129 27.5469 123.033 30.2363 123.033 34.4814C123.033 38.7529 125.116 41.4292 128.412 41.4292C130.93 41.4292 132.736 40.0713 133.264 37.7773H136.599C136.006 41.8511 132.895 44.3164 128.399 44.3164Z" fill="#EDCFC5"/>
</svg>
