<svg width="70" height="26" viewBox="0 0 70 26" fill="none" xmlns="http://www.w3.org/2000/svg">
<rect x="0.5" y="0.5" width="69" height="25" rx="12.5" fill="#171717"/>
<rect x="0.5" y="0.5" width="69" height="25" rx="12.5" stroke="#EDCFC5"/>
<path d="M50.3739 19C49.4804 19 48.8142 18.7306 48.3756 18.1918C47.9532 17.6531 47.742 17.0327 47.742 16.3306C47.742 15.2531 48.2294 14.3796 49.2042 13.7102C50.1952 13.0408 51.7224 12.4286 53.7857 11.8735V10.5755C53.7857 9.80816 53.6232 9.26122 53.2983 8.93469C52.9896 8.59184 52.551 8.42041 51.9823 8.42041C51.2025 8.42041 50.5526 8.71429 50.0327 9.30204C49.5291 9.8898 49.1798 10.6816 48.9848 11.6776H48.4243V8.15102C48.9767 7.87347 49.6916 7.61224 50.5689 7.36735C51.4624 7.12245 52.4291 7 53.4689 7C56.2795 7 57.6849 8.09388 57.6849 10.2816V15.6204C57.6849 15.9959 57.7336 16.2898 57.8311 16.502C57.9286 16.698 58.1235 16.7959 58.416 16.7959C58.5784 16.7959 58.7571 16.7633 58.9521 16.698C59.1633 16.6163 59.3826 16.4694 59.6101 16.2571L60 16.649C59.6426 17.4 59.1714 17.9633 58.5865 18.3388C58.0017 18.698 57.3356 18.8776 56.5882 18.8776C55.7921 18.8776 55.1748 18.7224 54.7361 18.4122C54.3137 18.0857 54.0131 17.6204 53.8344 17.0163H53.7857C53.412 17.6694 52.9165 18.1673 52.2991 18.5102C51.6818 18.8367 51.04 19 50.3739 19ZM52.2748 16.7959C52.5997 16.7959 52.884 16.7225 53.1277 16.5755C53.3877 16.4122 53.607 16.2327 53.7857 16.0367V12.8531C53.0384 13.0653 52.4697 13.3429 52.0798 13.6857C51.7061 14.0286 51.4543 14.3714 51.3243 14.7143C51.2106 15.0571 51.1538 15.3429 51.1538 15.5714C51.1538 15.9143 51.2512 16.2082 51.4462 16.4531C51.6411 16.6816 51.9173 16.7959 52.2748 16.7959Z" fill="#EDCFC5"/>
<path d="M33.8198 18.6326V18.0693C34.0959 18.053 34.3153 17.9959 34.4777 17.8979C34.6402 17.8 34.7539 17.604 34.8189 17.3102C34.8839 17 34.9164 16.5428 34.9164 15.9387V10.0612C34.9164 9.44078 34.8758 8.98363 34.7945 8.68976C34.7133 8.39588 34.5671 8.19996 34.3559 8.102C34.1609 8.00404 33.8604 7.9469 33.4542 7.93057V7.36731H39.6685V7.93057C39.3923 7.9469 39.173 8.00404 39.0105 8.102C38.8481 8.19996 38.7343 8.39588 38.6694 8.68976C38.6044 8.98363 38.5719 9.44078 38.5719 10.0612V12.4612H38.6206L41.8862 9.71833C42.1624 9.48976 42.3411 9.302 42.4223 9.15506C42.5198 8.9918 42.5685 8.82853 42.5685 8.66527C42.5685 8.4367 42.471 8.26527 42.2761 8.15098C42.0974 8.02037 41.7562 7.9469 41.2526 7.93057V7.36731H46.419V7.93057C46.0615 8.01221 45.6797 8.17547 45.2736 8.42037C44.8674 8.66527 44.4206 9.00812 43.9332 9.44894L42.7391 10.5265C42.5442 10.6898 42.4304 10.8449 42.3979 10.9918C42.3654 11.1224 42.3979 11.2775 42.4954 11.4571L45.0786 16.1102C45.5173 16.8938 45.8991 17.4163 46.224 17.6775C46.5489 17.9387 46.8657 18.0693 47.1744 18.0693V18.6326C46.8495 18.7469 46.4839 18.8367 46.0778 18.902C45.6879 18.9673 45.2817 19 44.8593 19C44.1444 19 43.5514 18.8938 43.0803 18.6816C42.6254 18.4693 42.2436 18.1673 41.9349 17.7755C41.6262 17.3836 41.3338 16.9265 41.0576 16.404L39.8147 14.0285C39.5873 13.604 39.3598 13.3918 39.1324 13.3918C38.9699 13.3918 38.8318 13.4571 38.7181 13.5877C38.6206 13.7183 38.5719 13.9306 38.5719 14.2245V15.9387C38.5719 16.5428 38.5962 17 38.645 17.3102C38.71 17.604 38.8237 17.8 38.9862 17.8979C39.1486 17.9959 39.3761 18.053 39.6685 18.0693V18.6326H33.8198Z" fill="#EDCFC5"/>
<path d="M20.9664 16.1836C21.1939 16.7551 21.3807 17.1714 21.5269 17.4326C21.6894 17.6938 21.8356 17.8571 21.9656 17.9224C22.1118 17.9877 22.2743 18.0367 22.453 18.0693V18.6326H16.4093V18.0693C16.8804 18.0367 17.1404 17.8571 17.1891 17.5306C17.2378 17.1877 17.1566 16.7387 16.9454 16.1836L14.9227 10.7469H14.874L12.6076 16.1836C12.3639 16.7551 12.3639 17.204 12.6076 17.5306C12.8675 17.8571 13.2981 18.0367 13.8992 18.0693V18.6326H10V18.0693C10.2275 18.0367 10.4549 17.8571 10.6824 17.5306C10.9098 17.1877 11.1373 16.7387 11.3647 16.1836L13.8017 10.453C13.9804 10.0285 14.0291 9.62853 13.9479 9.25302C13.8829 8.87751 13.7205 8.56731 13.4605 8.32241C13.2006 8.07751 12.8838 7.9469 12.5101 7.93057V7.36731H17.5303C17.6115 7.69384 17.709 8.00404 17.8227 8.29792C17.9527 8.57547 18.0827 8.88568 18.2126 9.22853L20.9664 16.1836Z" fill="#EDCFC5"/>
<path d="M27.3106 7.35929C27.3106 7.35929 27.5921 10.2877 28.8037 11.5052C30.0153 12.7228 32.9293 13.0057 32.9293 13.0057C32.9293 13.0057 30.0153 13.2886 28.8037 14.5061C27.5921 15.7237 27.3106 18.6521 27.3106 18.6521C27.3106 18.6521 27.0291 15.7237 25.8175 14.5061C24.6059 13.2886 21.6919 13.0057 21.6919 13.0057C21.6919 13.0057 24.5078 12.8214 25.8175 11.5052C27.1273 10.189 27.3106 7.35929 27.3106 7.35929Z" fill="#EDCFC5"/>
</svg>
