<svg width="183" height="68" viewBox="0 0 183 68" fill="none" xmlns="http://www.w3.org/2000/svg">
<rect x="1.5" y="1.5" width="180" height="65" rx="32.5" stroke="#EDCFC5" stroke-width="3"/>
<path d="M132.395 50C130.018 50 128.246 49.2816 127.079 47.8449C125.955 46.4082 125.394 44.7537 125.394 42.8816C125.394 40.0082 126.69 37.6789 129.283 35.8939C131.919 34.1088 135.982 32.4762 141.47 30.9959V27.5347C141.47 25.4884 141.038 24.0299 140.173 23.1592C139.352 22.2449 138.186 21.7878 136.673 21.7878C134.599 21.7878 132.87 22.5714 131.487 24.1388C130.147 25.7061 129.218 27.8177 128.7 30.4735H127.209V21.0694C128.678 20.3293 130.58 19.6327 132.913 18.9796C135.29 18.3265 137.861 18 140.627 18C148.104 18 151.842 20.917 151.842 26.751V40.9878C151.842 41.9891 151.971 42.7728 152.231 43.3388C152.49 43.8612 153.009 44.1224 153.786 44.1224C154.219 44.1224 154.694 44.0354 155.213 43.8612C155.774 43.6435 156.358 43.2517 156.963 42.6857L158 43.7306C157.049 45.7333 155.796 47.2354 154.24 48.2367C152.684 49.1946 150.913 49.6735 148.925 49.6735C146.807 49.6735 145.165 49.2599 143.998 48.4327C142.874 47.5619 142.075 46.3211 141.6 44.7102H141.47C140.476 46.4517 139.158 47.7796 137.516 48.6939C135.873 49.5646 134.166 50 132.395 50ZM137.451 44.1224C138.315 44.1224 139.071 43.9265 139.72 43.5347C140.411 43.0993 140.995 42.6204 141.47 42.098V33.6082C139.482 34.1742 137.969 34.9143 136.932 35.8286C135.938 36.7429 135.268 37.6571 134.923 38.5714C134.62 39.4857 134.469 40.2476 134.469 40.8571C134.469 41.7714 134.728 42.5551 135.247 43.2082C135.765 43.8177 136.5 44.1224 137.451 44.1224Z" fill="#EDCFC5"/>
<path d="M88.3605 49.0203V47.5183C89.0952 47.4747 89.6786 47.3223 90.1108 47.0611C90.5429 46.7999 90.8455 46.2775 91.0183 45.4938C91.1912 44.6666 91.2776 43.4475 91.2776 41.8366V26.1632C91.2776 24.5087 91.1696 23.2897 90.9535 22.506C90.7374 21.7223 90.3485 21.1999 89.7867 20.9387C89.2681 20.6774 88.4686 20.5251 87.3882 20.4815V18.9795H103.918V20.4815C103.184 20.5251 102.6 20.6774 102.168 20.9387C101.736 21.1999 101.433 21.7223 101.26 22.506C101.088 23.2897 101.001 24.5087 101.001 26.1632V32.5632H101.131L109.817 25.2489C110.552 24.6394 111.027 24.1387 111.243 23.7468C111.503 23.3115 111.632 22.8761 111.632 22.4407C111.632 21.8312 111.373 21.374 110.854 21.0693C110.379 20.721 109.471 20.5251 108.132 20.4815V18.9795H121.874V20.4815C120.924 20.6992 119.908 21.1346 118.828 21.7877C117.747 22.4407 116.559 23.355 115.262 24.5305L112.086 27.404C111.567 27.8394 111.265 28.253 111.179 28.6448C111.092 28.9931 111.179 29.4067 111.438 29.8856L118.309 42.2938C119.476 44.3836 120.492 45.7768 121.356 46.4734C122.22 47.17 123.063 47.5183 123.884 47.5183V49.0203C123.02 49.3251 122.047 49.5645 120.967 49.7387C119.93 49.9128 118.849 49.9999 117.726 49.9999C115.824 49.9999 114.247 49.7169 112.994 49.1509C111.784 48.5849 110.768 47.7795 109.947 46.7346C109.126 45.6897 108.348 44.4706 107.613 43.0774L104.307 36.7428C103.702 35.6108 103.097 35.0448 102.492 35.0448C102.06 35.0448 101.693 35.2189 101.39 35.5672C101.131 35.9155 101.001 36.4815 101.001 37.2652V41.8366C101.001 43.4475 101.066 44.6666 101.196 45.4938C101.369 46.2775 101.671 46.7999 102.103 47.0611C102.535 47.3223 103.14 47.4747 103.918 47.5183V49.0203H88.3605Z" fill="#EDCFC5"/>
<path d="M54.1707 42.4897C54.7757 44.0135 55.2727 45.1237 55.6616 45.8203C56.0938 46.5169 56.4827 46.9523 56.8285 47.1264C57.2174 47.3006 57.6496 47.4312 58.125 47.5183V49.0203H42.0487V47.5183C43.3019 47.4312 43.9934 46.9523 44.123 46.0815C44.2527 45.1672 44.0366 43.97 43.4748 42.4897L38.0944 27.9917H37.9648L31.9361 42.4897C31.2879 44.0135 31.2879 45.2108 31.9361 46.0815C32.6276 46.9523 33.7728 47.4312 35.3718 47.5183V49.0203H25V47.5183C25.605 47.4312 26.21 46.9523 26.8151 46.0815C27.4201 45.1672 28.0251 43.97 28.6301 42.4897L35.1125 27.2081C35.5879 26.0761 35.7175 25.0094 35.5015 24.0081C35.3286 23.0067 34.8964 22.1795 34.205 21.5264C33.5135 20.8734 32.6708 20.5251 31.6768 20.4815V18.9795H45.0305C45.2466 19.8502 45.5059 20.6774 45.8084 21.4611C46.1542 22.2013 46.4999 23.0285 46.8456 23.9428L54.1707 42.4897Z" fill="#EDCFC5"/>
<path d="M71.0462 18.9581C71.0462 18.9581 71.7951 26.7671 75.0179 30.0139C78.2407 33.2607 85.992 34.0151 85.992 34.0151C85.992 34.0151 78.2407 34.7696 75.0179 38.0163C71.7951 41.2631 71.0462 49.0721 71.0462 49.0721C71.0462 49.0721 70.2973 41.2631 67.0746 38.0163C63.8518 34.7696 56.1004 34.0151 56.1004 34.0151C56.1004 34.0151 63.5906 33.5238 67.0746 30.0139C70.5585 26.504 71.0462 18.9581 71.0462 18.9581Z" fill="#EDCFC5"/>
</svg>
