<svg width="231" height="69" viewBox="0 0 231 69" fill="none" xmlns="http://www.w3.org/2000/svg">
<circle cx="34.5" cy="34.5" r="33" stroke="#EDCFC5" stroke-width="3"/>
<path fill-rule="evenodd" clip-rule="evenodd" d="M15.681 33.7758C26.15 29.2599 33.131 26.2827 36.6239 24.8442C46.5969 20.7372 48.6692 20.0238 50.0199 20.0003C50.317 19.9951 50.9813 20.068 51.4115 20.4136C51.7748 20.7055 51.8748 21.0998 51.9226 21.3765C51.9704 21.6532 52.03 22.2836 51.9827 22.7762C51.4422 28.3984 49.1037 42.0419 47.914 48.3389C47.4106 51.0033 46.4194 51.8967 45.4598 51.9841C43.3744 52.1741 41.7908 50.6196 39.7709 49.3087C36.6102 47.2573 34.8246 45.9804 31.7566 43.9787C28.211 41.6653 30.5095 40.3939 32.5301 38.316C33.0589 37.7722 42.2475 29.4973 42.4253 28.7467C42.4476 28.6528 42.4682 28.3029 42.2582 28.1181C42.0483 27.9333 41.7383 27.9965 41.5147 28.0467C41.1977 28.118 36.1485 31.4222 26.367 37.9596C24.9338 38.9339 23.6356 39.4087 22.4725 39.3838C21.1903 39.3564 18.7238 38.666 16.8902 38.0759C14.6412 37.3521 12.8538 36.9694 13.0094 35.7402C13.0905 35.0999 13.9811 34.4451 15.681 33.7758Z" fill="#EDCFC5"/>
<circle cx="115.5" cy="34.5" r="33" stroke="#EDCFC5" stroke-width="3"/>
<path d="M117.786 48C104.12 48 96.3248 38.991 96 24H102.846C103.071 35.003 108.117 39.6637 112.115 40.6246V24H118.561V33.4895C122.509 33.0811 126.655 28.7568 128.055 24H134.501C133.426 29.8619 128.929 34.1862 125.731 35.964C128.929 37.4054 134.051 41.1772 136 48H128.904C127.38 43.4354 123.583 39.9039 118.561 39.4234V48H117.786Z" fill="#EDCFC5"/>
<circle cx="196.5" cy="34.5" r="33" stroke="#EDCFC5" stroke-width="3"/>
<path d="M220 35.2464V34.7536C209.814 34.425 205.165 34.1786 201.436 30.5643C197.821 26.835 197.559 22.1857 197.246 12H196.754C196.425 22.1857 196.179 26.835 192.564 30.5643C188.835 34.1786 184.186 34.4414 174 34.7536V35.2464C184.186 35.575 188.835 35.8214 192.564 39.4357C196.179 43.165 196.441 47.8143 196.754 58H197.246C197.575 47.8143 197.821 43.165 201.436 39.4357C205.165 35.8214 209.814 35.5586 220 35.2464Z" fill="#EDCFC5"/>
</svg>
