<svg width="762" height="762" viewBox="0 0 762 762" fill="none" xmlns="http://www.w3.org/2000/svg">
<g filter="url(#filter0_f_57_126)">
<path d="M315.991 146.232C315.945 132.574 315.443 119.675 314.713 108.003C319.921 119.28 325.96 131.657 332.768 144.504C358.616 193.284 396.39 250.497 442.942 278.723C489.495 306.949 557.691 313.989 612.894 314.354C628.751 314.459 643.689 314.012 656.946 313.318C644.871 318.833 631.418 325.343 617.407 332.768C568.627 358.616 511.414 396.39 483.188 442.943C454.962 489.495 447.922 557.691 447.557 612.894C447.452 628.751 447.899 643.689 448.593 656.946C443.078 644.871 436.568 631.419 429.143 617.407C403.295 568.628 365.521 511.414 318.968 483.188C272.416 454.962 204.22 447.922 149.017 447.557C134.477 447.461 120.71 447.829 108.304 448.425C118.99 443.675 130.66 438.157 142.792 431.883C191.189 406.852 248.335 369.085 278.723 318.969C309.11 268.852 316.174 200.719 315.991 146.232Z" stroke="#7BFF4D" stroke-width="17" stroke-linecap="round"/>
</g>
<defs>
<filter id="filter0_f_57_126" x="0" y="0" width="761.91" height="761.911" filterUnits="userSpaceOnUse" color-interpolation-filters="sRGB">
<feFlood flood-opacity="0" result="BackgroundImageFix"/>
<feBlend mode="normal" in="SourceGraphic" in2="BackgroundImageFix" result="shape"/>
<feGaussianBlur stdDeviation="25" result="effect1_foregroundBlur_57_126"/>
</filter>
</defs>
</svg>
